<?xml version="1.0" encoding="utf-8"?>
<!-- Generator: Adobe Illustrator 24.1.0, SVG Export Plug-In . SVG Version: 6.00 Build 0)  -->
<svg version="1.1" id="Layer_1" xmlns="http://www.w3.org/2000/svg" xmlns:xlink="http://www.w3.org/1999/xlink" x="0px" y="0px"
	 viewBox="0 0 1216 1621" style="enable-background:new 0 0 1216 1621;" xml:space="preserve">
<style type="text/css">
	.st0{fill:#0D0D0D;}
</style>
<g>
	<path class="st0" d="M437.3,113.1c6.5,0,9.5-2.8,9.5-6.7c0-8.4-12.8-4.6-12.8-8.7c0-1.3,1.3-2,3.8-2c2.6,0,4.7,0.7,6.6,2.1l1.4-3.8
		c-2.2-1.3-5-2.2-8.1-2.2c-5,0-8.3,2.2-8.3,6.3c0,8.4,12.8,4.2,12.8,8.5c0,1.4-1.4,2.6-4.8,2.6c-2.8,0-5.3-0.7-7.5-2.5l-1.4,3.9
		C430.8,112.2,433.7,113.1,437.3,113.1z M473.1,112.8h4.6L470.3,92h-9.1l-7.3,20.8h4.7l1.9-5.6h10.7L473.1,112.8z M461.8,103.3
		l2.5-7.3h3l2.5,7.3H461.8z M486.3,112.8h4.5V96.5h2.2l8.9,8.3v8h4.5V92h-4.5v6.5h-0.1l-7.2-6.5h-8.3V112.8z M536.2,92h-5.4
		l-4.9,8.4h-1.1l-4.8-8.4h-5.4l8.5,14v6.8h4.5v-6.9L536.2,92z M553.4,113.1c6.4,0,11.5-4.4,11.5-10.7c0-6.3-5.1-10.7-11.5-10.7
		c-6.3,0-11.5,4.4-11.5,10.7C541.9,108.7,547.1,113.1,553.4,113.1z M553.4,108.8c-3.7,0-6.7-2.6-6.7-6.5c0-3.8,2.9-6.5,6.7-6.5
		c3.8,0,6.7,2.7,6.7,6.5C560.1,106.3,557.1,108.8,553.4,108.8z M585.1,113.1c4.1,0,7-1,9.6-2.1v-10.3H584l0.5,3.9h5.8v3.5
		c-1.5,0.4-2.7,0.7-5.1,0.7c-4.6,0-7.6-2.3-7.6-6.5c0-4,2.8-6.4,7.1-6.4c2.6,0,4.8,0.8,6.4,2l1.5-4.1c-2.3-1.2-5-2.1-8.2-2.1
		c-6.6,0-11.6,4.2-11.6,10.7C572.8,108.7,577.6,113.1,585.1,113.1z M604.3,112.8h4.5V92h-4.5V112.8z M625.9,112.8h4.5V95.9h8.8V92
		h-22.1v3.9h8.8V112.8z M662.9,112.8h4.6L660.2,92H651l-7.3,20.8h4.7l1.9-5.6H661L662.9,112.8z M651.6,103.3l2.5-7.3h3l2.5,7.3
		H651.6z M711.1,98.2c0-3.4-2.8-6.2-6.8-6.2h-13.9v20.8h4.5v-8.3h5.1l5.3,8.3h5.4l-5.8-8.3C708.6,104.1,711.1,101.5,711.1,98.2z
		 M694.9,95.9h9c1.7,0,2.7,0.7,2.7,2.3c0,1.5-1,2.3-2.7,2.3h-9V95.9z M720.6,112.8h4.5V92h-4.5V112.8z M735.5,112.8h4.5V96.5h2.2
		l8.9,8.3v8h4.5V92H751v6.5h-0.1l-7.2-6.5h-8.3V112.8z M777.1,113.1c4.1,0,7-1,9.6-2.1v-10.3h-10.7l0.5,3.9h5.8v3.5
		c-1.5,0.4-2.7,0.7-5.1,0.7c-4.6,0-7.6-2.3-7.6-6.5c0-4,2.8-6.4,7.1-6.4c2.6,0,4.8,0.8,6.4,2l1.5-4.1c-2.3-1.2-5-2.1-8.2-2.1
		c-6.6,0-11.6,4.2-11.6,10.7C764.7,108.7,769.5,113.1,777.1,113.1z"/>
	<path class="st0" d="M295.3,158.9h2.9v-6.6h7.1c3.2,0,5.4-2.1,5.4-5c0-2.8-2.2-5-5.4-5h-10V158.9z M298.2,149.7v-4.9h6.8
		c1.8,0,2.8,0.9,2.8,2.4c0,1.6-1,2.5-2.8,2.5H298.2z M315.3,158.9h13.2v-2.6h-10.3v-14.1h-2.9V158.9z M347.3,158.9h3l-5.9-16.6h-6.7
		l-5.9,16.6h3l1.7-5h9L347.3,158.9z M337.4,151.3l2.2-6.5h2.8l2.3,6.5H337.4z M358.5,158.9h2.9v-14.1h7.1v-2.6h-17.1v2.6h7.1V158.9z
		 M372.8,158.9h2.9v-16.6h-2.9V158.9z M381.6,158.9h2.9v-13.7h1.9l7.5,6.8v6.9h2.9v-16.6H394v5.7h-0.1l-6.4-5.7h-5.9V158.9z
		 M410.1,159.1c4.5,0,7.7-2.4,7.7-7.4v-9.5H415v9.2c0,3.2-1.6,5.1-4.8,5.1c-3.2,0-4.8-1.9-4.8-5.1v-9.2h-2.9v9.5
		C402.4,156.8,405.6,159.1,410.1,159.1z M423.4,158.9h2.9v-13.7h0l4.6,8.1h4l4.5-8.1h0v13.7h2.9v-16.6h-4.5l-4.9,9h0l-5-9h-4.5
		V158.9z M448.6,163.1l2.9-6l-2.6-1l-1.8,6.5L448.6,163.1z M481.3,147c0-2.7-2.2-4.8-5.3-4.8h-10.6v16.6h2.9v-7h4.6l4.7,7h3.5
		l-4.9-7C479.2,151.8,481.3,149.8,481.3,147z M468.3,144.8h7.4c1.6,0,2.6,0.7,2.6,2.2c0,1.4-1,2.3-2.6,2.3h-7.4V144.8z M493.9,159.1
		c4.5,0,7.7-2.4,7.7-7.4v-9.5h-2.9v9.2c0,3.2-1.6,5.1-4.8,5.1c-3.2,0-4.8-1.9-4.8-5.1v-9.2h-2.9v9.5
		C486.2,156.8,489.4,159.1,493.9,159.1z M518,148.7c0.9-0.6,1.4-1.6,1.4-2.8c0-1.9-1.3-3.7-4.5-3.7h-7.6v16.6h9.8
		c3.6,0,5.6-2.4,5.6-5.2C522.6,151.2,521,149.1,518,148.7z M510.1,144.8h4.5c1.3,0,1.8,0.8,1.8,1.7c0,0.9-0.5,1.7-1.9,1.7h-4.5
		V144.8z M516.7,156.3h-6.6v-5.5h6.7c1.8,0,3,1.1,3,2.7C519.8,155.1,518.8,156.3,516.7,156.3z M527.5,158.9h2.9v-16.6h-2.9V158.9z
		 M536.4,158.9h14.3v-2.6h-11.4V151h6.7v-2.6h-6.7v-3.6h11.4v-2.6h-14.3V158.9z M561.4,159.1c5,0,7.3-2.3,7.3-5.3
		c0-6.7-10.4-3.3-10.4-7.1c0-1.3,1.2-2.1,3.4-2.1c2,0,3.8,0.6,5.3,1.7l0.9-2.5c-1.7-1.1-3.9-1.8-6.3-1.8c-3.9,0-6.3,1.7-6.3,4.9
		c0,6.6,10.4,3,10.4,7c0,1.4-1.2,2.6-4.3,2.6c-2.4,0-4.3-0.7-6-2l-0.9,2.5C556.4,158.4,558.6,159.1,561.4,159.1z M573.7,163.1l2.8-6
		l-2.6-1l-1.8,6.5L573.7,163.1z M595.9,159.1c5,0,7.3-2.3,7.3-5.3c0-6.7-10.4-3.3-10.4-7.1c0-1.3,1.2-2.1,3.4-2.1
		c2,0,3.8,0.6,5.3,1.7l0.9-2.5c-1.7-1.1-3.9-1.8-6.3-1.8c-3.9,0-6.3,1.7-6.3,4.9c0,6.6,10.4,3,10.4,7c0,1.4-1.2,2.6-4.3,2.6
		c-2.4,0-4.3-0.7-6-2l-0.9,2.5C590.8,158.4,593.1,159.1,595.9,159.1z M622,158.9h3l-5.9-16.6h-6.7l-5.9,16.6h3l1.7-5h9L622,158.9z
		 M612.2,151.3l2.2-6.5h2.8l2.3,6.5H612.2z M629.5,158.9h2.9v-6.6h7.1c3.2,0,5.4-2.1,5.4-5c0-2.8-2.2-5-5.4-5h-10V158.9z
		 M632.4,149.7v-4.9h6.8c1.8,0,2.8,0.9,2.8,2.4c0,1.6-1,2.5-2.8,2.5H632.4z M649.5,158.9h2.9v-6.6h7.1c3.2,0,5.4-2.1,5.4-5
		c0-2.8-2.2-5-5.4-5h-10V158.9z M652.4,149.7v-4.9h6.8c1.8,0,2.8,0.9,2.8,2.4c0,1.6-1,2.5-2.8,2.5H652.4z M669.6,158.9h2.9v-8.5
		h10.3v8.5h2.9v-16.6h-2.9v5.6h-10.3v-5.6h-2.9V158.9z M691.6,158.9h2.9v-16.6h-2.9V158.9z M716.3,147c0-2.7-2.2-4.8-5.3-4.8h-10.6
		v16.6h2.9v-7h4.6l4.7,7h3.5l-4.9-7C714.2,151.8,716.3,149.8,716.3,147z M703.4,144.8h7.4c1.6,0,2.6,0.7,2.6,2.2
		c0,1.4-1,2.3-2.6,2.3h-7.4V144.8z M721.7,158.9H736v-2.6h-11.4V151h6.7v-2.6h-6.7v-3.6H736v-2.6h-14.3V158.9z M746.7,159.1
		c5,0,7.3-2.3,7.3-5.3c0-6.7-10.4-3.3-10.4-7.1c0-1.3,1.2-2.1,3.4-2.1c2,0,3.8,0.6,5.3,1.7l0.9-2.5c-1.7-1.1-3.9-1.8-6.3-1.8
		c-3.9,0-6.3,1.7-6.3,4.9c0,6.6,10.4,3,10.4,7c0,1.4-1.2,2.6-4.3,2.6c-2.4,0-4.3-0.7-6-2l-0.9,2.5
		C741.6,158.4,743.9,159.1,746.7,159.1z M758.9,163.1l2.8-6l-2.6-1l-1.8,6.5L758.9,163.1z M775.8,158.9h14.3v-2.6h-11.4V151h6.7
		v-2.6h-6.7v-3.6h11.4v-2.6h-14.3V158.9z M795.5,158.9h2.9v-13.7h0l4.6,8.1h4l4.5-8.1h0v13.7h2.9v-16.6h-4.5l-4.9,9h0l-5-9h-4.5
		V158.9z M820.4,158.9h14.3v-2.6h-11.4V151h6.7v-2.6h-6.7v-3.6h11.4v-2.6h-14.3V158.9z M856,147c0-2.7-2.2-4.8-5.3-4.8h-10.6v16.6
		h2.9v-7h4.6l4.7,7h3.5l-4.9-7C853.8,151.8,856,149.8,856,147z M843,144.8h7.4c1.6,0,2.6,0.7,2.6,2.2c0,1.4-1,2.3-2.6,2.3H843V144.8
		z M875.3,158.9h3l-5.9-16.6h-6.7l-5.9,16.6h3l1.7-5h9L875.3,158.9z M865.5,151.3l2.2-6.5h2.8l2.3,6.5H865.5z M882.8,158.9H896v-2.6
		h-10.3v-14.1h-2.9V158.9z M900.7,158.9h8.1c5.4,0,8.6-3.4,8.6-8.4c0-4.9-3.3-8.2-8.8-8.2h-8V158.9z M903.6,156.3v-11.5h4.6
		c4,0,6.1,1.9,6.1,5.7c0,3.7-2.3,5.8-6.1,5.8H903.6z M927.7,159.1c5,0,7.3-2.3,7.3-5.3c0-6.7-10.4-3.3-10.4-7.1
		c0-1.3,1.2-2.1,3.4-2.1c2,0,3.8,0.6,5.3,1.7l0.9-2.5c-1.7-1.1-3.9-1.8-6.3-1.8c-3.9,0-6.3,1.7-6.3,4.9c0,6.6,10.4,3,10.4,7
		c0,1.4-1.2,2.6-4.3,2.6c-2.4,0-4.3-0.7-6-2l-0.9,2.5C922.6,158.4,924.9,159.1,927.7,159.1z M496.3,190c5,0,9-3.5,9-8.6
		c0-5.1-4-8.5-9-8.5c-5,0-9.1,3.5-9.1,8.5C487.2,186.5,491.3,190,496.3,190z M496.3,187.2c-3.3,0-6-2.4-6-5.8c0-3.4,2.6-5.8,6-5.8
		c3.3,0,6,2.4,6,5.8C502.3,184.9,499.6,187.2,496.3,187.2z M510.3,189.7h2.9V176h1.9l7.5,6.8v6.9h2.9v-16.6h-2.9v5.7h-0.1l-6.4-5.7
		h-5.9V189.7z M546.6,173.1h-3.5l-4.5,7.4h-0.7l-4.5-7.4h-3.5l6.9,11v5.6h2.9v-5.7L546.6,173.1z M566,173.1h-3.4l-4.4,7h-1l-4.3-7
		h-3.4l5.2,8.3l-5.2,8.3h3.4l4.3-7.1h1l4.4,7.1h3.4l-5.3-8.3L566,173.1z M570.7,193.9l2.9-6l-2.6-1l-1.8,6.5L570.7,193.9z
		 M587.6,189.7h8.1c5.4,0,8.6-3.4,8.6-8.4c0-4.9-3.3-8.2-8.8-8.2h-8V189.7z M590.5,187.2v-11.5h4.6c4,0,6.1,1.9,6.1,5.7
		c0,3.7-2.3,5.8-6.1,5.8H590.5z M609.2,189.7h2.9v-16.6h-2.9V189.7z M632.1,189.7h3l-5.9-16.6h-6.7l-5.9,16.6h3l1.7-5h9L632.1,189.7
		z M622.3,182.2l2.2-6.5h2.8l2.3,6.5H622.3z M639.6,189.7h2.9V176h0l4.6,8.1h4l4.5-8.1h0v13.7h2.9v-16.6h-4.5l-4.9,9h0l-5-9h-4.5
		V189.7z M672.6,190c5,0,9-3.5,9-8.6c0-5.1-4-8.5-9-8.5c-5,0-9.1,3.5-9.1,8.5C663.5,186.5,667.6,190,672.6,190z M672.6,187.2
		c-3.3,0-6-2.4-6-5.8c0-3.4,2.6-5.8,6-5.8c3.3,0,6,2.4,6,5.8C678.5,184.9,675.9,187.2,672.6,187.2z M686.5,189.7h2.9V176h1.9
		l7.5,6.8v6.9h2.9v-16.6h-2.9v5.7h-0.1l-6.4-5.7h-5.9V189.7z M707.7,189.7h8.1c5.4,0,8.6-3.4,8.6-8.4c0-4.9-3.3-8.2-8.8-8.2h-8
		V189.7z M710.6,187.2v-11.5h4.6c4,0,6.1,1.9,6.1,5.7c0,3.7-2.3,5.8-6.1,5.8H710.6z M734.7,190c5,0,7.3-2.3,7.3-5.3
		c0-6.7-10.4-3.3-10.4-7.1c0-1.3,1.2-2.1,3.4-2.1c2,0,3.8,0.6,5.3,1.7l0.9-2.5c-1.7-1.1-3.9-1.8-6.3-1.8c-3.9,0-6.3,1.7-6.3,4.9
		c0,6.6,10.4,3,10.4,7c0,1.4-1.2,2.6-4.3,2.6c-2.4,0-4.3-0.7-6-2l-0.9,2.5C729.7,189.3,731.9,190,734.7,190z"/>
	<path class="st0" d="M191.2,99.6L52.2,238.6l-0.3,0.5v119.6h3.4V240.2L192.4,103h118.3v-3.4H191.2z"/>
	<path class="st0" d="M905.3,99.6v3.4h118.3l137.3,137.3v118.3h3.4V239l-0.3-0.5L1024.8,99.6H905.3z"/>
	<path class="st0" d="M310.8,1522.2v-3.4H192.4L55.2,1381.6v-118.3h-3.4v119.6l0.3,0.5l139.1,138.9H310.8z"/>
	<path class="st0" d="M1024.8,1522.2l139.1-138.9l0.3-0.5v-119.6h-3.4v118.3l-137.3,137.2H905.3v3.4H1024.8z"/>
	<path class="st0" d="M747.4,1498.8c-5.3-0.1-15.7,8.3-16.9,9.5l5.4-9.3h-8.2c-10.5,17.8-32.4,35.1-42.2,35.4
		c-8.8,0.6-9.4-5.7-6.5-13.1c12.5,1.3,34.5-11.5,27.5-21.1c-5.9-5.9-21.7,0.3-31.9,13.8l-2,3c-0.1,0.1-0.1,0.2-0.2,0.4
		c-3.6,4.8-10.9,11.6-10.9,11.6c-9.4,9.3-13.7,3.8-9.7-2.8l15.5-27h-7c-1.9,2.7-11.4,20-26.7,30.8c-8.6,6.6-15.4,3.8-9.4-4.9
		l15.2-25.9h8.5l1.1-1.2h-8.6l9.2-16.1H642c-4.1,6.9-13.7,23.1-23.2,27.2c1.7-2.3,1.1-5.3,1.1-5.3c-0.7-3.5-4.6-3.8-4.6-3.8
		s-5.5-0.8-11.9,4.8l3.4-5.6l-7.7,0.1c-6.8,12-24.8,37.6-34.6,35.1c-2.7-1.2-2.8-4.5-0.1-9L580,1499h-7.7c-1,1.6-3.7,6.5-4.1,7.5
		c0.2-1.6,0.7-7.7-5.2-8.8c-1.3-0.3-2.3-0.4-3.6-0.4c-6.6-0.1-13.3,3.4-19.8,9.1c-4.6,4.1-9,9.5-12.7,16.2
		c-15.9,14.6-32.1,15.4-37.4,10c-5.6-5.7-7.8-17.6,2.6-37.6c3.6-5.3,17.3-27.8,36.9-33c14.7-3.9,20.7,4.3,21.2,14
		c0,0,4.4-8.3,9.4-13.5c-3,1.3-9.8,2.8-13,1c-9.5-6.1-27.8-5.2-51.2,16.6c-20.1,20.4-34.4,60.1,5.5,57c14.1-1.7,26-13,26-13
		c-1.9,6.8,1.2,12,7,13c2.2,0.4,5.2-0.2,7.8-1.2c2.2-0.9,6.7-2.7,12.7-7.4c-1.9,7.5,9.7,18.6,30.9-7.7l-9.9,15.9h9
		c0,0,15-26.4,17.7-29.2c5.8-7.8,16.5-9.2,16.4-3.8c-1.2-0.6-2.2-0.7-3.1-0.6c-2.6,0.4-3.7,3.6-3.2,5.9c0.2,0.7,0.7,1.5,1.9,2.1
		c0,0,5,3.5,17.1-11.6l-1.7,3.1c0,0-12.2,21-13.7,24c-6.2,11.8,8.4,13,17.2,5.4c0,0,7.1-5.2,15.3-14.1c-0.1,0.1-0.1,0.2-0.2,0.4
		c0-0.1,0.1-0.1,0.1-0.1c-0.1,0.1-0.1,0.2-0.1,0.2v-0.1c-4.2,7.5-8.9,15.3-2.9,18.6c1.7,0.8,6.3,1.3,12-2.8c0,0,9.1-7.5,14-13.6
		c-2,4.8-3.9,12.4,4.4,15.9c4.6,1.5,8.5,0.5,13.1-1.1c14.6-4.8,33.4-26.2,33.4-26.2s-15.9,26.4-16.4,27.4h8.1
		c0,0,11.4-19.4,13.7-22.7c6.2-9.8,19.8-16.5,21.2-13.1c-5-1-6.2,6.4-2.3,7.9C752.3,1511.1,755.9,1499.3,747.4,1498.8z
		 M698.8,1499.3c2.2,0.2,3.2,1.4,3,4.4c-0.7,6.5-10.3,17.2-22.5,16.9C683.5,1510.5,693.7,1498.9,698.8,1499.3z M551.7,1529.1
		c-2.3,2-5.2,3.6-5.2,3.6c-11.7,5.9-14.4-0.6-13.1-6.5c1.1-5.2,5.7-12.8,9.5-17.4c3.3-3.7,6.9-6.5,11.4-8.8
		c9.7-4.8,15.7,1.2,11.7,9.8C563.3,1515.3,559,1522.8,551.7,1529.1z"/>
	<path class="st0" d="M669.3,1490.8c1.9,0,3.5-1.5,3.5-3.5c0-1.9-1.5-3.5-3.5-3.5c-1.9,0-3.5,1.5-3.5,3.5
		C665.8,1489.2,667.4,1490.8,669.3,1490.8z"/>
</g>
</svg>
