<?xml version="1.0" encoding="utf-8"?>
<!-- Generator: Adobe Illustrator 24.1.0, SVG Export Plug-In . SVG Version: 6.00 Build 0)  -->
<svg version="1.1" id="Layer_1" xmlns="http://www.w3.org/2000/svg" xmlns:xlink="http://www.w3.org/1999/xlink" x="0px" y="0px"
	 viewBox="0 0 1216 1621" style="enable-background:new 0 0 1216 1621;" xml:space="preserve">
<style type="text/css">
	.st0{fill:#0D0D0D;}
</style>
<path class="st0" d="M448.3,112.8h18.6v-3.9h-14.2v-5.5h8.2v-3.9h-8.2v-3.4h14.2V92h-18.6V112.8z M476.5,112.8h4.5V96.5h0.1l4.8,9.5
	h6.1l4.8-9.5h0.1v16.3h4.5V92h-7l-5.3,11h-0.1l-5.4-11h-7V112.8z M511.6,112.8h18.6v-3.9h-14.2v-5.5h8.2v-3.9h-8.2v-3.4h14.2V92
	h-18.6V112.8z M560.6,98.2c0-3.4-2.8-6.2-6.8-6.2h-13.9v20.8h4.5v-8.3h5.1l5.3,8.3h5.4l-5.8-8.3C558.1,104.2,560.6,101.6,560.6,98.2
	z M544.4,95.9h9c1.7,0,2.7,0.7,2.7,2.3c0,1.5-1,2.3-2.7,2.3h-9V95.9z M587.6,112.8h4.6L584.8,92h-9.1l-7.3,20.8h4.7l1.9-5.6h10.7
	L587.6,112.8z M576.2,103.3l2.5-7.3h3l2.5,7.3H576.2z M600.7,112.8h16.9v-3.9h-12.4V92h-4.5V112.8z M626.3,112.8h10.9
	c6.6,0,10.7-4.3,10.7-10.5c0-6.1-4-10.3-10.9-10.3h-10.7V112.8z M630.8,108.8V95.9h5.6c4.6,0,6.9,2,6.9,6.4c0,4.1-2.5,6.5-6.9,6.5
	H630.8z M692.1,98.2c0-3.4-2.8-6.2-6.8-6.2h-13.9v20.8h4.5v-8.3h5.1l5.3,8.3h5.4l-5.8-8.3C689.6,104.2,692.1,101.6,692.1,98.2z
	 M675.9,95.9h9c1.7,0,2.7,0.7,2.7,2.3c0,1.5-1,2.3-2.7,2.3h-9V95.9z M701.7,112.8h4.5V92h-4.5V112.8z M716.5,112.8h4.5V96.5h2.2
	l8.9,8.3v8h4.5V92h-4.5v6.5h-0.1l-7.2-6.5h-8.3V112.8z M758.1,113.1c4.1,0,7-1,9.6-2.1v-10.3H757l0.5,3.9h5.8v3.5
	c-1.5,0.4-2.7,0.7-5.1,0.7c-4.6,0-7.6-2.3-7.6-6.5c0-4,2.8-6.4,7.1-6.4c2.6,0,4.8,0.8,6.4,2l1.5-4.1c-2.3-1.2-5-2.1-8.2-2.1
	c-6.6,0-11.6,4.2-11.6,10.7C745.7,108.7,750.5,113.1,758.1,113.1z"/>
<path class="st0" d="M371.3,158.9h2.9v-6.6h7.1c3.2,0,5.4-2.1,5.4-5c0-2.8-2.2-5-5.4-5h-10V158.9z M374.2,149.7v-4.9h6.8
	c1.8,0,2.8,0.9,2.8,2.4c0,1.6-1,2.5-2.8,2.5H374.2z M391.3,158.9h13.2v-2.6h-10.3v-14.1h-2.9L391.3,158.9L391.3,158.9z M423.2,158.9
	h3l-5.9-16.6h-6.7l-5.9,16.6h3l1.7-5h9L423.2,158.9z M413.4,151.3l2.2-6.5h2.8l2.3,6.5H413.4z M434.4,158.9h2.9v-14.1h7.1v-2.6
	h-17.1v2.6h7.1V158.9z M448.8,158.9h2.9v-16.6h-2.9V158.9z M457.6,158.9h2.9v-13.7h1.9l7.5,6.8v6.9h2.9v-16.6H470v5.7h-0.1l-6.4-5.7
	h-5.9V158.9z M486.1,159.1c4.5,0,7.7-2.4,7.7-7.4v-9.5H491v9.2c0,3.2-1.6,5.1-4.8,5.1c-3.2,0-4.8-1.9-4.8-5.1v-9.2h-2.9v9.5
	C478.4,156.8,481.6,159.1,486.1,159.1z M499.4,158.9h2.9v-13.7l0,0l4.6,8.1h4l4.5-8.1l0,0v13.7h2.9v-16.6h-4.5l-4.9,9l0,0l-5-9h-4.5
	L499.4,158.9L499.4,158.9z M524.5,163.1l2.9-6l-2.6-1l-1.8,6.4L524.5,163.1z M541.4,158.9h14.3v-2.6h-11.4V151h6.7v-2.6h-6.7v-3.6
	h11.4v-2.6h-14.3V158.9z M561.1,158.9h2.9v-13.7l0,0l4.6,8.1h4l4.5-8.1l0,0v13.7h2.9v-16.6h-4.5l-4.9,9l0,0l-5-9h-4.5V158.9z
	 M586,158.9h14.3v-2.6h-11.4V151h6.7v-2.6h-6.7v-3.6h11.4v-2.6H586V158.9z M621.5,147c0-2.7-2.2-4.8-5.3-4.8h-10.6v16.6h2.9v-7h4.6
	l4.7,7h3.5l-4.9-7C619.4,151.8,621.5,149.8,621.5,147z M608.6,144.8h7.4c1.6,0,2.6,0.7,2.6,2.2c0,1.4-1,2.3-2.6,2.3h-7.4V144.8z
	 M640.9,158.9h3l-5.9-16.6h-6.7l-5.9,16.6h3l1.7-5h9L640.9,158.9z M631.1,151.3l2.2-6.5h2.8l2.3,6.5H631.1z M648.4,158.9h13.2v-2.6
	h-10.3v-14.1h-2.9V158.9z M666.3,158.9h8.1c5.4,0,8.6-3.4,8.6-8.4c0-4.9-3.3-8.2-8.8-8.2h-8v16.6L666.3,158.9L666.3,158.9z
	 M669.2,156.3v-11.5h4.6c4,0,6.1,1.9,6.1,5.7c0,3.7-2.3,5.8-6.1,5.8H669.2z M687.7,163.1l2.9-6l-2.6-1l-1.8,6.5L687.7,163.1z
	 M704.5,158.9h8.1c5.4,0,8.6-3.4,8.6-8.4c0-4.9-3.3-8.2-8.8-8.2h-8v16.6L704.5,158.9L704.5,158.9z M707.4,156.3v-11.5h4.6
	c4,0,6.1,1.9,6.1,5.7c0,3.7-2.3,5.8-6.1,5.8H707.4z M726.2,158.9h2.9v-16.6h-2.9V158.9z M749.1,158.9h3l-5.9-16.6h-6.7l-5.9,16.6h3
	l1.7-5h9L749.1,158.9z M739.2,151.3l2.2-6.5h2.8l2.3,6.5H739.2z M756.6,158.9h2.9v-13.7l0,0l4.6,8.1h4l4.5-8.1l0,0v13.7h2.9v-16.6
	H771l-4.9,9l0,0l-5-9h-4.5V158.9z M789.6,159.1c5,0,9-3.5,9-8.6s-4-8.5-9-8.5s-9.1,3.5-9.1,8.5C780.5,155.6,784.6,159.1,789.6,159.1
	z M789.6,156.4c-3.3,0-6-2.4-6-5.8c0-3.4,2.6-5.8,6-5.8c3.3,0,6,2.4,6,5.8C795.5,154,792.9,156.4,789.6,156.4z M803.5,158.9h2.9
	v-13.7h1.9l7.5,6.8v6.9h2.9v-16.6h-2.9v5.7h-0.1l-6.4-5.7h-5.9L803.5,158.9L803.5,158.9z M824.7,158.9h8.1c5.4,0,8.6-3.4,8.6-8.4
	c0-4.9-3.3-8.2-8.8-8.2h-8v16.6L824.7,158.9L824.7,158.9z M827.6,156.3v-11.5h4.6c4,0,6.1,1.9,6.1,5.7c0,3.7-2.3,5.8-6.1,5.8H827.6z
	 M851.7,159.1c5,0,7.3-2.3,7.3-5.3c0-6.7-10.4-3.3-10.4-7.1c0-1.3,1.2-2.1,3.4-2.1c2,0,3.8,0.6,5.3,1.7l0.9-2.5
	c-1.7-1.1-3.9-1.8-6.3-1.8c-3.9,0-6.3,1.7-6.3,4.9c0,6.6,10.4,3,10.4,7c0,1.4-1.2,2.6-4.3,2.6c-2.4,0-4.3-0.7-6-2l-0.9,2.5
	C846.6,158.4,848.9,159.1,851.7,159.1z"/>
<path class="st0" d="M191.2,99.6l-139.1,139l-0.3,0.5v119.6h3.4V240.2l137.3-137.3h118.3v-3.4H191.2V99.6z"/>
<path class="st0" d="M905.2,99.6v3.4h118.3l137.3,137.3v118.3h3.4V239l-0.3-0.5L1024.8,99.6H905.2z"/>
<path class="st0" d="M310.8,1522.2v-3.4H192.4L55.2,1381.6v-118.3h-3.4v119.6l0.3,0.5l139.1,138.9L310.8,1522.2L310.8,1522.2z"/>
<path class="st0" d="M1024.8,1522.2l139.1-138.9l0.3-0.5v-119.6h-3.4v118.3l-137.3,137.2H905.2v3.4L1024.8,1522.2L1024.8,1522.2z"/>
<path class="st0" d="M747.4,1498.8c-5.3-0.1-15.7,8.3-16.9,9.5l5.4-9.3h-8.2c-10.5,17.8-32.4,35.1-42.2,35.4
	c-8.8,0.6-9.4-5.7-6.5-13.1c12.5,1.3,34.5-11.5,27.5-21.1c-5.9-5.9-21.7,0.3-31.9,13.8l-2,3c-0.1,0.1-0.1,0.2-0.2,0.4
	c-3.6,4.8-10.9,11.6-10.9,11.6c-9.4,9.3-13.7,3.8-9.7-2.8l15.5-27h-7c-1.9,2.7-11.4,20-26.7,30.8c-8.6,6.6-15.4,3.8-9.4-4.9
	l15.2-25.9h8.5l1.1-1.2h-8.6l9.2-16.1H642c-4.1,6.9-13.7,23.1-23.2,27.2c1.7-2.3,1.1-5.3,1.1-5.3c-0.7-3.5-4.6-3.8-4.6-3.8
	s-5.5-0.8-11.9,4.8l3.4-5.6l-7.7,0.1c-6.8,12-24.8,37.6-34.6,35.1c-2.7-1.2-2.8-4.5-0.1-9l15.5-26.2h-7.7c-1,1.6-3.7,6.5-4.1,7.5
	c0.2-1.6,0.7-7.7-5.2-8.8c-1.3-0.3-2.3-0.4-3.6-0.4c-6.6-0.1-13.3,3.4-19.8,9.1c-4.6,4.1-9,9.5-12.7,16.2
	c-15.9,14.6-32.1,15.4-37.4,10c-5.6-5.7-7.8-17.6,2.6-37.6c3.6-5.3,17.3-27.8,36.9-33c14.7-3.9,20.7,4.3,21.2,14
	c0,0,4.4-8.3,9.4-13.5c-3,1.3-9.8,2.8-13,1c-9.5-6.1-27.8-5.2-51.2,16.6c-20.1,20.4-34.4,60.1,5.5,57c14.1-1.7,26-13,26-13
	c-1.9,6.8,1.2,12,7,13c2.2,0.4,5.2-0.2,7.8-1.2c2.2-0.9,6.7-2.7,12.7-7.4c-1.9,7.5,9.7,18.6,30.9-7.7l-9.9,15.9h9
	c0,0,15-26.4,17.7-29.2c5.8-7.8,16.5-9.2,16.4-3.8c-1.2-0.6-2.2-0.7-3.1-0.6c-2.6,0.4-3.7,3.6-3.2,5.9c0.2,0.7,0.7,1.5,1.9,2.1
	c0,0,5,3.5,17.1-11.6l-1.7,3.1c0,0-12.2,21-13.7,24c-6.2,11.8,8.4,13,17.2,5.4c0,0,7.1-5.2,15.3-14.1c-0.1,0.1-0.1,0.2-0.2,0.4
	c0-0.1,0.1-0.1,0.1-0.1c-0.1,0.1-0.1,0.2-0.1,0.2v-0.1c-4.2,7.5-8.9,15.3-2.9,18.6c1.7,0.8,6.3,1.3,12-2.8c0,0,9.1-7.5,14-13.6
	c-2,4.8-3.9,12.4,4.4,15.9c4.6,1.5,8.5,0.5,13.1-1.1c14.6-4.8,33.4-26.2,33.4-26.2s-15.9,26.4-16.4,27.4h8.1
	c0,0,11.4-19.4,13.7-22.7c6.2-9.8,19.8-16.5,21.2-13.1c-5-1-6.2,6.4-2.3,7.9C752.3,1511.1,755.9,1499.3,747.4,1498.8z M698.8,1499.3
	c2.2,0.2,3.2,1.4,3,4.4c-0.7,6.5-10.3,17.2-22.5,16.9C683.5,1510.5,693.7,1498.9,698.8,1499.3z M551.7,1529.1
	c-2.3,2-5.2,3.6-5.2,3.6c-11.7,5.9-14.4-0.6-13.1-6.5c1.1-5.2,5.7-12.8,9.5-17.4c3.3-3.7,6.9-6.5,11.4-8.8
	c9.7-4.8,15.7,1.2,11.7,9.8C563.3,1515.3,558.9,1522.8,551.7,1529.1z"/>
<path class="st0" d="M669.3,1490.8c1.9,0,3.5-1.5,3.5-3.5c0-1.9-1.5-3.5-3.5-3.5c-1.9,0-3.5,1.5-3.5,3.5
	C665.8,1489.2,667.4,1490.8,669.3,1490.8z"/>
</svg>
