<?xml version="1.0" encoding="utf-8"?>
<!-- Generator: Adobe Illustrator 24.1.0, SVG Export Plug-In . SVG Version: 6.00 Build 0)  -->
<svg version="1.1" id="Layer_1" xmlns="http://www.w3.org/2000/svg" xmlns:xlink="http://www.w3.org/1999/xlink" x="0px" y="0px"
	 viewBox="0 0 1216 1621" style="enable-background:new 0 0 1216 1621;" xml:space="preserve">
<style type="text/css">
	.st0{fill:#0D0D0D;}
</style>
<g>
	<g>
		<g>
			<path class="st0" d="M430.3,111H449v-3.9h-14.2v-5.6h8.2v-3.9h-8.2v-3.4H449v-3.9h-18.6V111H430.3z M465.6,111.3
				c6.5,0,9.5-2.8,9.5-6.7c0-8.4-12.8-4.6-12.8-8.7c0-1.3,1.3-2,3.8-2c2.6,0,4.7,0.7,6.6,2.1l1.4-3.8c-2.2-1.3-5-2.2-8.1-2.2
				c-5,0-8.3,2.2-8.3,6.3c0,8.4,12.8,4.2,12.8,8.5c0,1.4-1.4,2.6-4.8,2.6c-2.8,0-5.3-0.7-7.5-2.5l-1.4,3.9
				C459.1,110.4,462,111.3,465.6,111.3z M491,111.3c6.5,0,9.5-2.8,9.5-6.7c0-8.4-12.8-4.6-12.8-8.7c0-1.3,1.3-2,3.8-2
				c2.6,0,4.7,0.7,6.6,2.1l1.4-3.8c-2.2-1.3-5-2.2-8.1-2.2c-5,0-8.3,2.2-8.3,6.3c0,8.4,12.8,4.2,12.8,8.5c0,1.4-1.4,2.6-4.8,2.6
				c-2.8,0-5.3-0.7-7.5-2.5l-1.4,3.9C484.5,110.4,487.4,111.3,491,111.3z M526.8,111h4.6l-7.3-20.8H515l-7.3,20.8h4.7l1.9-5.6H525
				L526.8,111z M515.5,101.5l2.5-7.3h3l2.5,7.3H515.5z M550.3,111.3c6.4,0,11.5-4.4,11.5-10.7s-5.1-10.7-11.5-10.7
				c-6.3,0-11.5,4.4-11.5,10.7S544,111.3,550.3,111.3z M550.3,107c-3.7,0-6.7-2.6-6.7-6.5c0-3.8,2.9-6.5,6.7-6.5s6.7,2.7,6.7,6.5
				C557,104.5,554,107,550.3,107z M580.4,111.3c5.7,0,10.1-2.9,10.1-9.6V90.2H586v11.2c0,3.8-1.8,5.9-5.6,5.9
				c-3.7,0-5.6-2.2-5.6-5.9V90.2h-4.5v11.5C570.3,108.4,574.7,111.3,580.4,111.3z M600.3,111h4.5V90.2h-4.5V111z M635.8,96.4
				c0-3.4-2.8-6.2-6.8-6.2h-13.9V111h4.5v-8.3h5.1l5.3,8.3h5.4l-5.8-8.3C633.3,102.4,635.8,99.7,635.8,96.4z M619.6,94.1h9
				c1.7,0,2.7,0.7,2.7,2.3c0,1.5-1,2.3-2.7,2.3h-9V94.1z M662.8,111h4.6L660,90.2h-9.1l-7.3,20.8h4.7l1.9-5.6h10.7L662.8,111z
				 M651.5,101.5l2.5-7.3h3l2.5,7.3H651.5z M711,96.4c0-3.4-2.8-6.2-6.8-6.2h-13.9V111h4.5v-8.3h5.1l5.3,8.3h5.4l-5.8-8.3
				C708.5,102.4,711,99.7,711,96.4z M694.8,94.1h9c1.7,0,2.7,0.7,2.7,2.3c0,1.5-1,2.3-2.7,2.3h-9V94.1z M720.5,111h4.5V90.2h-4.5
				V111z M735.4,111h4.5V94.7h2.2l8.9,8.3v8h4.5V90.2H751v6.5h-0.1l-7.2-6.5h-8.3L735.4,111L735.4,111z M776.9,111.3
				c4.1,0,7-1,9.6-2.1V98.9h-10.7l0.5,3.9h5.8v3.5c-1.5,0.4-2.7,0.7-5.1,0.7c-4.6,0-7.6-2.3-7.6-6.5c0-4,2.8-6.4,7.1-6.4
				c2.6,0,4.8,0.8,6.4,2l1.5-4.1c-2.3-1.2-5-2.1-8.2-2.1c-6.6,0-11.6,4.2-11.6,10.7C764.6,106.9,769.4,111.3,776.9,111.3z"/>
			<path class="st0" d="M278.3,156.1h3.9l3.3-13.5h1l3.3,13.5h3.9l4.3-16.6h-3.1l-3.2,13.6l-3.1-13h-5.3l-3.1,13l-3.2-13.6h-3.1
				L278.3,156.1z M302.6,156.1h2.9v-8.5h10.3v8.5h2.9v-16.6h-2.9v5.6h-10.3v-5.6h-2.9V156.1z M324.7,156.1h2.9v-16.6h-2.9V156.1z
				 M339,156.1h2.9V142h7.1v-2.5h-17v2.6h7.1v14H339z M353.4,156.1h14.3v-2.6h-11.4v-5.3h6.7v-2.6h-6.7V142h11.4v-2.5h-14.3V156.1z
				 M390.2,156.3c3.3,0,5.6-0.9,7.6-1.9v-7.8h-8.2l0.3,2.6h5v3.4c-1.3,0.5-2.5,1-4.7,1c-4.1,0-6.6-2.2-6.6-5.8
				c0-3.5,2.5-5.8,6.3-5.8c2.2,0,4,0.7,5.4,1.8l1-2.7c-1.8-1.1-4-1.9-6.6-1.9c-5.2,0-9.2,3.4-9.2,8.5
				C380.5,152.8,384.2,156.3,390.2,156.3z M411.1,156.3c5,0,9-3.5,9-8.6s-4-8.6-9-8.6s-9.1,3.5-9.1,8.6S406.1,156.3,411.1,156.3z
				 M411.1,153.6c-3.3,0-6-2.4-6-5.8c0-3.4,2.6-5.8,6-5.8c3.3,0,6,2.4,6,5.8C417,151.2,414.4,153.6,411.1,153.6z M425,156.1h13.2
				v-2.6h-10.3v-14H425V156.1z M442.9,156.1h8.1c5.4,0,8.6-3.4,8.6-8.4c0-4.9-3.3-8.2-8.8-8.2h-8L442.9,156.1L442.9,156.1z
				 M445.8,153.5V142h4.6c4,0,6.1,1.9,6.1,5.7c0,3.7-2.3,5.8-6.1,5.8H445.8z M464.3,160.3l2.9-6l-2.6-1l-1.8,6.5L464.3,160.3z
				 M481.2,156.1h14.3v-2.6h-11.4v-5.3h6.7v-2.6h-6.7V142h11.4v-2.5h-14.3V156.1z M500.8,156.1h2.9v-13.7l0,0l4.6,8.1h4l4.5-8.1l0,0
				v13.7h2.9v-16.6h-4.5l-4.9,9l0,0l-5-9h-4.5L500.8,156.1L500.8,156.1z M525.8,156.1h14.3v-2.6h-11.4v-5.3h6.7v-2.6h-6.7V142h11.4
				v-2.5h-14.3V156.1z M561.3,144.2c0-2.7-2.2-4.8-5.3-4.8h-10.6V156h2.9v-7h4.6l4.7,7h3.5l-4.9-7C559.2,149,561.3,147,561.3,144.2z
				 M548.4,142h7.4c1.6,0,2.6,0.7,2.6,2.2c0,1.4-1,2.3-2.6,2.3h-7.4V142z M580.7,156.1h3l-5.9-16.6h-6.7l-5.9,16.6h3l1.7-5h9
				L580.7,156.1z M570.8,148.5l2.2-6.5h2.8l2.3,6.5H570.8z M588.2,156.1h13.2v-2.6h-10.3v-14h-2.9V156.1z M606.1,156.1h8.1
				c5.4,0,8.6-3.4,8.6-8.4c0-4.9-3.3-8.2-8.8-8.2h-8v16.6H606.1z M609,153.5V142h4.6c4,0,6.1,1.9,6.1,5.7c0,3.7-2.3,5.8-6.1,5.8H609
				z M627.5,160.3l2.8-6l-2.6-1l-1.8,6.5L627.5,160.3z M652.3,156.3c3.5,0,6-1.2,7.8-3.2l-1.8-2.2c-1.1,1.2-2.9,2.7-5.8,2.7
				c-3.7,0-6.2-2.3-6.2-5.8s2.5-5.8,6-5.8c2.6,0,4.4,1.2,5.6,2.4l1.8-2.2c-1.7-1.7-4.1-2.9-7.4-2.9c-5.1,0-9.1,3.3-9.1,8.5
				C643.3,152.8,646.9,156.3,652.3,156.3z M664.8,156.1h2.9v-8.5H678v8.5h2.9v-16.6H678v5.6h-10.3v-5.6h-2.9V156.1z M700.8,156.1h3
				l-5.9-16.6h-6.7l-5.9,16.6h3l1.7-5h9L700.8,156.1z M691,148.5l2.2-6.5h2.8l2.3,6.5H691z M708.3,156.1h13.2v-2.6h-10.3v-14h-2.9
				V156.1z M734.2,156.3c3.5,0,6-1.2,7.8-3.2l-1.8-2.2c-1.1,1.2-2.9,2.7-5.8,2.7c-3.7,0-6.2-2.3-6.2-5.8s2.5-5.8,6-5.8
				c2.6,0,4.4,1.2,5.6,2.4l1.8-2.2c-1.7-1.7-4.1-2.9-7.4-2.9c-5.1,0-9.1,3.3-9.1,8.5C725.2,152.8,728.8,156.3,734.2,156.3z
				 M746.6,156.1H761v-2.6h-11.4v-5.3h6.7v-2.6h-6.7V142H761v-2.5h-14.3v16.6H746.6z M766.3,156.1h8.1c5.4,0,8.6-3.4,8.6-8.4
				c0-4.9-3.3-8.2-8.8-8.2h-8v16.6H766.3z M769.2,153.5V142h4.6c4,0,6.1,1.9,6.1,5.7c0,3.7-2.3,5.8-6.1,5.8H769.2z M796,156.3
				c5,0,9-3.5,9-8.6s-4-8.6-9-8.6s-9.1,3.5-9.1,8.6S791,156.3,796,156.3z M796,153.6c-3.3,0-6-2.4-6-5.8c0-3.4,2.6-5.8,6-5.8
				c3.3,0,6,2.4,6,5.8C802,151.2,799.3,153.6,796,153.6z M810,156.1h2.9v-13.7h1.9l7.5,6.8v6.9h2.9v-16.6h-2.9v5.7h-0.1l-6.4-5.7
				H810V156.1z M846.3,139.5h-3.5l-4.5,7.4h-0.7l-4.6-7.4h-3.5l6.9,11v5.6h2.9v-5.7L846.3,139.5z M869.8,145.9
				c0.9-0.6,1.4-1.6,1.4-2.8c0-1.9-1.3-3.7-4.5-3.7H859V156h9.8c3.6,0,5.6-2.4,5.6-5.2C874.5,148.4,872.8,146.3,869.8,145.9z
				 M861.9,142h4.5c1.3,0,1.8,0.8,1.8,1.7s-0.5,1.7-1.9,1.7h-4.5V142H861.9z M868.5,153.5h-6.6V148h6.7c1.8,0,3,1.1,3,2.7
				C871.6,152.3,870.6,153.5,868.5,153.5z M879.4,156.1h14.3v-2.6h-11.4v-5.3h6.7v-2.6h-6.7V142h11.4v-2.5h-14.3V156.1z
				 M913.1,156.1h3l-5.9-16.6h-6.7l-5.9,16.6h3l1.7-5h9L913.1,156.1z M903.2,148.5l2.2-6.5h2.8l2.3,6.5H903.2z M920.6,156.1h8.1
				c5.4,0,8.6-3.4,8.6-8.4c0-4.9-3.3-8.2-8.8-8.2h-8v16.6H920.6z M923.5,153.5V142h4.6c4,0,6.1,1.9,6.1,5.7c0,3.7-2.3,5.8-6.1,5.8
				H923.5z M947.6,156.3c5,0,7.3-2.3,7.3-5.3c0-6.7-10.4-3.3-10.4-7.1c0-1.3,1.2-2.1,3.4-2.1c2,0,3.8,0.6,5.3,1.7l0.9-2.5
				c-1.7-1.1-3.9-1.8-6.3-1.8c-3.9,0-6.3,1.7-6.3,4.9c0,6.6,10.4,3,10.4,7c0,1.4-1.2,2.6-4.3,2.6c-2.4,0-4.3-0.7-6-2l-0.9,2.5
				C942.5,155.6,944.8,156.3,947.6,156.3z M306.4,187.2c5,0,7.3-2.3,7.3-5.3c0-6.7-10.4-3.3-10.4-7.1c0-1.3,1.2-2.1,3.4-2.1
				c2,0,3.8,0.6,5.3,1.7l0.9-2.5c-1.7-1.1-3.9-1.8-6.3-1.8c-3.9,0-6.3,1.7-6.3,4.9c0,6.6,10.4,3,10.4,7c0,1.4-1.2,2.6-4.3,2.6
				c-2.4,0-4.3-0.7-6-2l-0.9,2.5C301.3,186.5,303.5,187.2,306.4,187.2z M332.5,187h3l-5.9-16.6h-6.7L317,187h3l1.7-5h9L332.5,187z
				 M322.6,179.4l2.2-6.5h2.8l2.3,6.5H322.6z M340,187h2.9v-6.6h7.1c3.2,0,5.4-2.1,5.4-5c0-2.8-2.2-5-5.4-5h-10V187z M342.8,177.8
				v-4.9h6.8c1.8,0,2.8,0.9,2.8,2.4c0,1.6-1,2.5-2.8,2.5H342.8z M360,187h2.9v-6.6h7.1c3.2,0,5.4-2.1,5.4-5c0-2.8-2.2-5-5.4-5h-10
				V187z M362.9,177.8v-4.9h6.8c1.8,0,2.8,0.9,2.8,2.4c0,1.6-1,2.5-2.8,2.5H362.9z M380,187h2.9v-8.5h10.3v8.5h2.9v-16.6h-2.9v5.6
				h-10.3v-5.6H380V187z M402.1,187h2.9v-16.6h-2.9V187z M426.8,175.1c0-2.7-2.2-4.8-5.3-4.8h-10.6v16.6h2.9v-7h4.6l4.7,7h3.5
				l-4.9-7C424.7,179.9,426.8,177.9,426.8,175.1z M413.8,172.9h7.4c1.6,0,2.6,0.7,2.6,2.2c0,1.4-1,2.3-2.6,2.3h-7.4V172.9z
				 M432.1,187h14.3v-2.6H435v-5.3h6.7v-2.6H435v-3.6h11.4v-2.6h-14.3V187z M457.2,187.2c5,0,7.3-2.3,7.3-5.3
				c0-6.7-10.4-3.3-10.4-7.1c0-1.3,1.2-2.1,3.4-2.1c2,0,3.8,0.6,5.3,1.7l0.9-2.5c-1.7-1.1-3.9-1.8-6.3-1.8c-3.9,0-6.3,1.7-6.3,4.9
				c0,6.6,10.4,3,10.4,7c0,1.4-1.2,2.6-4.3,2.6c-2.4,0-4.3-0.7-6-2l-0.9,2.5C452.1,186.5,454.3,187.2,457.2,187.2z M469.4,191.2
				l2.9-6l-2.6-1l-1.8,6.5L469.4,191.2z M494.3,187.2c5,0,9-3.5,9-8.6s-4-8.6-9-8.6s-9.1,3.5-9.1,8.6
				C485.3,183.7,489.3,187.2,494.3,187.2z M494.3,184.5c-3.3,0-6-2.4-6-5.8c0-3.4,2.6-5.8,6-5.8c3.3,0,6,2.4,6,5.8
				S497.6,184.5,494.3,184.5z M508.3,187h2.9v-13.7h1.9l7.5,6.8v6.9h2.9v-16.6h-2.9v5.7h-0.1l-6.4-5.7h-5.9V187H508.3z M544.6,170.3
				h-3.5l-4.5,7.4h-0.7l-4.5-7.4h-3.5l6.9,11v5.6h2.9v-5.7L544.6,170.3z M564,170.3h-3.4l-4.4,7h-1l-4.3-7h-3.4l5.2,8.3l-5.2,8.3
				h3.4l4.3-7.1h1l4.4,7.1h3.4l-5.3-8.3L564,170.3z M568.7,191.2l2.9-6l-2.6-1l-1.8,6.5L568.7,191.2z M591.1,187h2.9v-14.1h7.1v-2.6
				H584v2.6h7.1V187z M612.8,187.2c4.5,0,7.7-2.4,7.7-7.4v-9.5h-2.9v9.2c0,3.2-1.6,5.1-4.8,5.1s-4.8-1.9-4.8-5.1v-9.2h-3v9.5
				C605,184.9,608.3,187.2,612.8,187.2z M641.9,175.1c0-2.7-2.2-4.8-5.3-4.8H626v16.6h2.9v-7h4.6l4.7,7h3.5l-4.9-7
				C639.8,179.9,641.9,177.9,641.9,175.1z M628.9,172.9h7.4c1.6,0,2.6,0.7,2.6,2.2c0,1.4-1,2.3-2.6,2.3h-7.4V172.9z M665.3,187
				l-2.9-3.2c1.2-1.4,1.9-3.2,1.9-5.1c0-5.1-4-8.6-9-8.6s-9.1,3.5-9.1,8.6c0,5,4.1,8.6,9.1,8.6c1.9,0,3.7-0.6,5.2-1.7l1.3,1.4H665.3
				z M655.3,184.5c-3.3,0-6-2.4-6-5.8c0-3.4,2.6-5.8,6-5.8c3.3,0,6,2.4,6,5.8c0,1.1-0.3,2.1-0.8,3l-3.2-3.5h-3.6l4.9,5.4
				C657.7,184.1,656.5,184.5,655.3,184.5z M676.5,187.2c4.5,0,7.7-2.4,7.7-7.4v-9.5h-2.9v9.2c0,3.2-1.6,5.1-4.8,5.1
				s-4.8-1.9-4.8-5.1v-9.2h-2.9v9.5C668.8,184.9,672,187.2,676.5,187.2z M697.9,187.2c5,0,9-3.5,9-8.6s-4-8.6-9-8.6
				s-9.1,3.5-9.1,8.6C688.8,183.7,692.9,187.2,697.9,187.2z M697.9,184.5c-3.3,0-6-2.4-6-5.8c0-3.4,2.6-5.8,6-5.8c3.3,0,6,2.4,6,5.8
				C703.8,182.1,701.2,184.5,697.9,184.5z M711.8,187h2.9v-16.6h-2.9V187z M726,187.2c5,0,7.3-2.3,7.3-5.3c0-6.7-10.4-3.3-10.4-7.1
				c0-1.3,1.2-2.1,3.4-2.1c2,0,3.8,0.6,5.3,1.7l0.9-2.5c-1.7-1.1-3.9-1.8-6.3-1.8c-3.9,0-6.3,1.7-6.3,4.9c0,6.6,10.4,3,10.4,7
				c0,1.4-1.2,2.6-4.3,2.6c-2.4,0-4.3-0.7-6-2l-0.9,2.5C721,186.5,723.2,187.2,726,187.2z M738.1,187h14.3v-2.6H741v-5.3h6.7v-2.6
				H741v-3.6h11.4v-2.6h-14.3L738.1,187L738.1,187z M757.9,191.2l2.8-6l-2.6-1l-1.8,6.5L757.9,191.2z M774.8,187h8.1
				c5.4,0,8.6-3.4,8.6-8.4c0-4.9-3.3-8.2-8.8-8.2h-8V187H774.8z M777.7,184.4v-11.5h4.6c4,0,6.1,1.9,6.1,5.7c0,3.7-2.3,5.8-6.1,5.8
				H777.7z M796.5,187h2.9v-16.6h-2.9V187z M819.3,187h3l-5.9-16.6h-6.7l-5.9,16.6h3l1.7-5h9L819.3,187z M809.5,179.4l2.2-6.5h2.8
				l2.3,6.5H809.5z M826.8,187h2.9v-13.7l0,0l4.6,8.1h4l4.5-8.1l0,0V187h2.9v-16.6h-4.5l-4.9,9l0,0l-5-9h-4.5V187z M859.8,187.2
				c5,0,9-3.5,9-8.6s-4-8.6-9-8.6s-9.1,3.5-9.1,8.6S854.8,187.2,859.8,187.2z M859.8,184.5c-3.3,0-6-2.4-6-5.8c0-3.4,2.6-5.8,6-5.8
				c3.3,0,6,2.4,6,5.8S863.1,184.5,859.8,184.5z M873.8,187h2.9v-13.7h1.9l7.5,6.8v6.9h2.9v-16.6h-2.9v5.7H886l-6.4-5.7h-5.9V187
				H873.8z M894.9,187h8.1c5.4,0,8.6-3.4,8.6-8.4c0-4.9-3.3-8.2-8.8-8.2h-8V187H894.9z M897.8,184.4v-11.5h4.6c4,0,6.1,1.9,6.1,5.7
				c0,3.7-2.3,5.8-6.1,5.8H897.8z M922,187.2c5,0,7.3-2.3,7.3-5.3c0-6.7-10.4-3.3-10.4-7.1c0-1.3,1.2-2.1,3.4-2.1
				c2,0,3.8,0.6,5.3,1.7l0.9-2.5c-1.7-1.1-3.9-1.8-6.3-1.8c-3.9,0-6.3,1.7-6.3,4.9c0,6.6,10.4,3,10.4,7c0,1.4-1.2,2.6-4.3,2.6
				c-2.4,0-4.3-0.7-6-2l-0.9,2.5C916.9,186.5,919.1,187.2,922,187.2z"/>
			<path class="st0" d="M191.2,99.6l-139.1,139l-0.3,0.5v119.6h3.4V240.2l137.3-137.3h118.3v-3.4H191.2V99.6z"/>
			<path class="st0" d="M905.2,99.6v3.4h118.3l137.3,137.3v118.3h3.4V239l-0.3-0.5L1024.8,99.6H905.2z"/>
			<path class="st0" d="M310.8,1522.2v-3.4H192.4L55.2,1381.6v-118.3h-3.4v119.6l0.3,0.5l139.1,138.9L310.8,1522.2L310.8,1522.2z"/>
			<path class="st0" d="M1024.8,1522.2l139.1-138.9l0.3-0.5v-119.6h-3.4v118.3l-137.3,137.2H905.2v3.4L1024.8,1522.2L1024.8,1522.2z
				"/>
			<path class="st0" d="M747.4,1498.8c-5.3-0.1-15.7,8.3-16.9,9.5l5.4-9.3h-8.2c-10.5,17.8-32.4,35.1-42.2,35.4
				c-8.8,0.6-9.4-5.7-6.5-13.1c12.5,1.3,34.5-11.5,27.5-21.1c-5.9-5.9-21.7,0.3-31.9,13.8l-2,3c-0.1,0.1-0.1,0.2-0.2,0.4
				c-3.6,4.8-10.9,11.6-10.9,11.6c-9.4,9.3-13.7,3.8-9.7-2.8l15.5-27h-7c-1.9,2.7-11.4,20-26.7,30.8c-8.6,6.6-15.4,3.8-9.4-4.9
				l15.2-25.9h8.5l1.1-1.2h-8.6l9.2-16.1H642c-4.1,6.9-13.7,23.1-23.2,27.2c1.7-2.3,1.1-5.3,1.1-5.3c-0.7-3.5-4.6-3.8-4.6-3.8
				s-5.5-0.8-11.9,4.8l3.4-5.6l-7.7,0.1c-6.8,12-24.8,37.6-34.6,35.1c-2.7-1.2-2.8-4.5-0.1-9l15.5-26.2h-7.7c-1,1.6-3.7,6.5-4.1,7.5
				c0.2-1.6,0.7-7.7-5.2-8.8c-1.3-0.3-2.3-0.4-3.6-0.4c-6.6-0.1-13.3,3.4-19.8,9.1c-4.6,4.1-9,9.5-12.7,16.2
				c-15.9,14.6-32.1,15.4-37.4,10c-5.6-5.7-7.8-17.6,2.6-37.6c3.6-5.3,17.3-27.8,36.9-33c14.7-3.9,20.7,4.3,21.2,14
				c0,0,4.4-8.3,9.4-13.5c-3,1.3-9.8,2.8-13,1c-9.5-6.1-27.8-5.2-51.2,16.6c-20.1,20.4-34.4,60.1,5.5,57c14.1-1.7,26-13,26-13
				c-1.9,6.8,1.2,12,7,13c2.2,0.4,5.2-0.2,7.8-1.2c2.2-0.9,6.7-2.7,12.7-7.4c-1.9,7.5,9.7,18.6,30.9-7.7l-9.9,15.9h9
				c0,0,15-26.4,17.7-29.2c5.8-7.8,16.5-9.2,16.4-3.8c-1.2-0.6-2.2-0.7-3.1-0.6c-2.6,0.4-3.7,3.6-3.2,5.9c0.2,0.7,0.7,1.5,1.9,2.1
				c0,0,5,3.5,17.1-11.6l-1.7,3.1c0,0-12.2,21-13.7,24c-6.2,11.8,8.4,13,17.2,5.4c0,0,7.1-5.2,15.3-14.1c-0.1,0.1-0.1,0.2-0.2,0.4
				c0-0.1,0.1-0.1,0.1-0.1c-0.1,0.1-0.1,0.2-0.1,0.2v-0.1c-4.2,7.5-8.9,15.3-2.9,18.6c1.7,0.8,6.3,1.3,12-2.8c0,0,9.1-7.5,14-13.6
				c-2,4.8-3.9,12.4,4.4,15.9c4.6,1.5,8.5,0.5,13.1-1.1c14.6-4.8,33.4-26.2,33.4-26.2s-15.9,26.4-16.4,27.4h8.1
				c0,0,11.4-19.4,13.7-22.7c6.2-9.8,19.8-16.5,21.2-13.1c-5-1-6.2,6.4-2.3,7.9C752.3,1511.1,755.9,1499.3,747.4,1498.8z
				 M698.8,1499.3c2.2,0.2,3.2,1.4,3,4.4c-0.7,6.5-10.3,17.2-22.5,16.9C683.5,1510.5,693.7,1498.9,698.8,1499.3z M551.7,1529.1
				c-2.3,2-5.2,3.6-5.2,3.6c-11.7,5.9-14.4-0.6-13.1-6.5c1.1-5.2,5.7-12.8,9.5-17.4c3.3-3.7,6.9-6.5,11.4-8.8
				c9.7-4.8,15.7,1.2,11.7,9.8C563.3,1515.3,558.9,1522.8,551.7,1529.1z"/>
			<path class="st0" d="M669.3,1490.8c1.9,0,3.5-1.5,3.5-3.5c0-1.9-1.5-3.5-3.5-3.5c-1.9,0-3.5,1.5-3.5,3.5
				C665.8,1489.2,667.4,1490.8,669.3,1490.8z"/>
		</g>
	</g>
</g>
</svg>
